ply
format ascii 1.0
comment Created in Blender version 4.2.2 LTS
element vertex 318
property float x
property float y
property float z
property float nx
property float ny
property float nz
property uchar red
property uchar green
property uchar blue
property uchar alpha
element face 624
property list uchar uint vertex_indices
end_header
0.00076073257 -0.009435704 0.04836726 -0.059478045 0.95455265 -0.29204747 243 245 246 255
0.0033214032 -0.009476109 0.04545509 -0.28577125 0.95750284 -0.03902607 243 245 246 255
-0.003506251 -0.00936937 0.045796208 0.3114023 0.9481306 -0.06385171 243 245 246 255
-0.0024931408 -0.009384281 0.04753577 0.23627917 0.9446424 -0.22764619 243 245 246 255
-0.0013487032 -0.009402921 0.04820466 0.11540295 0.94175345 -0.31588387 243 245 246 255
0.0024293938 -0.009451125 0.04729557 -0.22165808 0.952504 -0.20881587 243 245 246 255
0.010132529 -0.018538995 0.003964126 0.7783176 -0.22271892 0.5870419 243 245 246 255
-0.0105923815 -0.019520866 0.003999948 -0.91594684 0.1901902 0.35336807 243 245 246 255
0.010014492 -0.019854244 0.003999948 0.9597531 0.16068098 0.23033842 243 245 246 255
0.010069954 -0.017561583 0.006311535 0.727822 -0.65423054 -0.20556693 243 245 246 255
-0.010593844 -0.017255856 0.006348371 -0.88754016 -0.4195763 -0.1903369 243 245 246 255
0.010310627 -0.0027158267 0.001799941 0.5835128 0.56458 0.5837484 243 245 246 255
0.0103438925 -0.00822576 0.00174117 0.9291386 0.2704513 0.25210613 243 245 246 255
0.010327828 -0.0026772148 0.000133332 0.58481896 0.575441 -0.57171196 243 245 246 255
0.010218299 -0.008180447 0.003838419 0.57607824 0.5915959 0.5640463 243 245 246 255
0.010338899 -0.010822041 0.0038084378 0.972349 0.1044509 0.20887215 243 245 246 255
0.010202764 -0.011728929 0.01777273 0.6294523 0.70621896 0.32410604 243 245 246 255
0.010188915 -0.012944187 0.01885205 0.62884647 0.26874748 0.7296074 243 245 246 255
0.01014387 -0.017565835 0.004769504 0.8029538 -0.53937626 0.25365037 243 245 246 255
0.010092457 -0.016365696 0.01882749 0.5649019 -0.31511685 0.7626187 243 245 246 255
0.010248031 -0.017188963 0.01771438 0.87474376 -0.4293388 0.22470337 243 245 246 255
0.0101564955 -0.020906687 0.00174117 0.91823834 -0.2909312 0.2686957 243 245 246 255
0.009947796 -0.020947058 0.003920257 0.7807064 -0.34992006 -0.51773876 243 245 246 255
0.010000709 -0.02645478 0.000163633 0.57182586 -0.5940736 -0.5657666 243 245 246 255
0.00996043 -0.02641323 0.001799941 0.56054264 -0.583035 0.58810055 243 245 246 255
0.0049445042 -0.0060387743 0.0038749569 0.5786583 0.225585 0.78375137 243 245 246 255
-0.006899514 -0.007769155 0.003922104 -0.2387489 0.5447238 0.8039123 243 245 246 255
-0.010456283 -0.007874921 0.003838419 -0.5586485 0.60782367 0.5643247 243 245 246 255
0.0065718708 -0.007923763 0.003912925 0.25663254 0.55111456 0.79398525 243 245 246 255
0.0048358105 -0.0026599576 0.0038749569 0.575199 0.5667922 0.58982444 243 245 246 255
-0.004912334 -0.0024658872 0.0038249488 -0.5507535 0.60783094 0.57202464 243 245 246 255
-0.004975165 -0.006241563 0.00399816 -0.20506664 0.11578497 0.97187525 243 245 246 255
-0.0103870835 -0.0024099587 0.001799941 -0.5637086 0.5836871 0.5844159 243 245 246 255
-0.0048980406 -0.0024103024 0.001761496 -0.26794943 0.92517924 0.2687871 243 245 246 255
-0.010414628 -0.0023815937 0.000152542 -0.57055783 0.5905481 -0.5707161 243 245 246 255
0.0048239045 -0.0025539722 0.001761496 0.29143986 0.914104 0.2819161 243 245 246 255
-0.010776384 -0.026123475 0.000133333 -0.5899329 -0.5702294 -0.5716797 243 245 246 255
-0.0052895057 -0.0262702 0.001760601 -0.2954162 -0.91221327 0.2838947 243 245 246 255
-0.01073728 -0.026107362 0.0018 -0.57870644 -0.569031 0.5842112 243 245 246 255
0.0044489373 -0.026366416 0.003838419 0.54211897 -0.6109233 0.5769574 243 245 246 255
-0.0052261967 -0.026177304 0.0038846128 -0.56194264 -0.57877743 0.590963 243 245 246 255
0.004523716 -0.026384812 0.0017788409 0.27617905 -0.9137239 0.29805005 243 245 246 255
0.004398704 -0.023154244 0.003991544 0.5051752 -0.8581796 0.09124595 243 245 246 255
-0.005077723 -0.023040196 0.003989934 -0.5340094 -0.8396878 0.09878357 243 245 246 255
-0.010565202 -0.011251715 0.004751801 -0.7942837 0.51543725 0.32161763 243 245 246 255
0.010232899 -0.01159745 0.004798948 0.81816375 0.48512483 0.30864543 243 245 246 255
-0.010567933 -0.012457125 0.018799901 -0.6076983 0.33196878 0.7214566 243 245 246 255
-0.010574181 -0.020609153 0.00393176 -0.8274378 -0.31959876 -0.4617394 243 245 246 255
-0.010764762 -0.02064574 0.001745045 -0.9221645 -0.26575968 0.2810418 243 245 246 255
-0.010583152 -0.007916503 0.00174117 -0.92044705 0.29734322 0.25370097 243 245 246 255
-0.010654375 -0.010497384 0.00379908 -0.9674651 0.13334726 0.21501137 243 245 246 255
-0.010579568 -0.011461864 0.01771855 -0.6211989 0.7282901 0.28931922 243 245 246 255
-0.010752123 -0.017075278 0.0047302837 -0.9780989 -0.19624797 0.06934854 243 245 246 255
-0.010563992 -0.01590182 0.01887345 -0.57774085 -0.2577222 0.77446413 243 245 246 255
-0.010669572 -0.018056504 0.003997564 -0.8161268 -0.26611418 0.51295245 243 245 246 255
-0.010752138 -0.016878685 0.01771444 -0.8961485 -0.38948673 0.21264544 243 245 246 255
-0.0073824814 -0.020899115 0.001899957 -0.29405108 -0.711066 0.63868546 243 245 246 255
-0.0055390336 -0.022462007 0.001899957 -0.6899742 -0.36212724 0.62673724 243 245 246 255
-0.0053751464 -0.023271736 0.0037006128 -0.8946895 -0.14748642 0.42163804 243 245 246 255
-0.0058829156 -0.022049539 0.0037001958 -0.77705956 -0.6178422 0.12020608 243 245 246 255
-0.0072840033 -0.020915182 0.0036989448 -0.28427076 -0.86403507 0.41549188 243 245 246 255
-0.005241596 -0.006062011 0.001899957 -0.69743204 0.3501062 0.6253113 243 245 246 255
-0.007107498 -0.0077087367 0.001899957 -0.27902216 0.70462906 0.65241444 243 245 246 255
-0.0052088276 -0.005885748 0.0036939378 -0.8573083 0.31383732 0.4080792 243 245 246 255
0.0048721638 -0.022615861 0.001899957 0.67921716 -0.38109142 0.6272427 243 245 246 255
0.006793566 -0.021094065 0.001899957 0.2725836 -0.71986145 0.6383555 243 245 246 255
0.00665181 -0.021130366 0.0036888118 0.26011705 -0.88263845 0.39152077 243 245 246 255
0.0052280235 -0.022213735 0.0037001958 0.75622666 -0.6387761 0.141726 243 245 246 255
0.0046860357 -0.023412017 0.003702998 0.88757294 -0.17553729 0.42591205 243 245 246 255
0.0049672336 -0.005718878 0.001899957 0.71852744 0.18870352 0.6694097 243 245 246 255
0.0056744344 -0.007047809 0.001899957 0.5526071 0.49359503 0.67155737 243 245 246 255
0.007038558 -0.007948483 0.001899957 0.22789602 0.7106003 0.6656655 243 245 246 255
-0.0103634065 -0.010129414 0.004017531 -0.39393178 0.26311612 0.8806746 243 245 246 255
0.010057283 -0.010407634 0.004015088 0.39270803 0.24831699 0.885505 243 245 246 255
-0.010462891 -0.017289143 0.005109727 -0.3711022 -0.8994989 0.23061849 243 245 246 255
-0.010453188 -0.017181398 0.0177704 -0.91820025 -0.12904662 0.37450674 243 245 246 255
0.009936094 -0.017499039 0.01768088 0.9315191 -0.09661375 0.35062504 243 245 246 255
0.006257886 -0.020913461 0.003997445 0.41383088 -0.86059535 -0.29684937 243 245 246 255
-0.0069091413 -0.020695508 0.003997147 -0.43222985 -0.85354817 -0.29091746 243 245 246 255
0.009949576 -0.023315143 0.004009008 0.61099833 -0.3172296 -0.7252906 243 245 246 255
0.010015055 -0.025371023 0.01918762 0.64650667 -0.73377395 0.20881821 243 245 246 255
-0.010772486 -0.025096973 0.01903659 -0.66834396 -0.7149994 0.20516433 243 245 246 255
0.008570058 -0.015780116 0.0359255 0.35463884 -0.49093497 0.79574746 243 245 246 255
-0.009034274 -0.015535993 0.03590935 -0.36694136 -0.48943952 0.79107714 243 245 246 255
0.008534798 -0.014539739 0.0360046 0.5383292 -0.60004467 0.5917331 243 245 246 255
-0.008958617 -0.0142808035 0.0360043 -0.54841655 -0.59170157 0.5908711 243 245 246 255
0.0051184157 -0.01437891 0.05381 0.19879895 -0.6416196 0.74081254 243 245 246 255
0.0075904676 -0.014352196 0.05229121 0.57366335 -0.61161375 0.5448294 243 245 246 255
-0.006757061 -0.014192214 0.05324614 -0.40378496 -0.6322407 0.6612333 243 245 246 255
-0.0050116726 -0.014258543 0.05383157 -0.11686309 -0.67272925 0.7306014 243 245 246 255
-0.008749762 -0.014286281 0.05053359 -0.5349617 -0.8242326 0.18562539 243 245 246 255
0.008442879 -0.014539631 0.04983228 0.39457446 -0.9151212 0.082850546 243 245 246 255
0.00694292 -0.009607897 0.05282139 0.46026438 0.6642811 0.5889715 243 245 246 255
0.008638584 -0.009590035 0.05011796 0.7224545 0.67964697 0.12704162 243 245 246 255
0.005326874 -0.009570722 0.05374723 0.21934098 0.64781874 0.72953445 243 245 246 255
0.008605135 -0.0095421495 0.03600448 0.52209795 0.6234194 0.5820326 243 245 246 255
0.0029224483 -0.009470571 0.04349088 -0.2810105 0.9489091 0.1435436 243 245 246 255
-0.005629556 -0.009330122 0.05355769 -0.12991306 0.9026851 0.41022223 243 245 246 255
-0.007877839 -0.009418087 0.05224508 -0.5603383 0.66770625 0.4900913 243 245 246 255
-0.008941952 -0.009377385 0.05020254 -0.71040183 0.6790063 0.1851483 243 245 246 255
-0.008887093 -0.009283473 0.03600472 -0.51048356 0.60636765 0.6096924 243 245 246 255
0.008895363 -0.00817592 0.03574204 0.56200665 0.74161243 0.36627802 243 245 246 255
-0.009128845 -0.007990571 0.035844978 -0.6463339 0.50114435 0.575419 243 245 246 255
0.009934298 -0.017548189 0.01925081 0.4324499 0.877229 -0.20846193 243 245 246 255
-0.009079988 -0.007887392 0.03557926 -0.5688206 0.81818485 -0.083766356 243 245 246 255
-0.010444163 -0.017240066 0.019253429 -0.40845838 0.88880366 -0.20782186 243 245 246 255
0.00998675 -0.025455015 0.006144404 0.620232 -0.7246069 -0.30042827 243 245 246 255
-0.010753891 -0.025105648 0.0061185346 -0.6439583 -0.7034474 -0.3007982 243 245 246 255
-0.010634896 -0.023010949 0.004009008 -0.61758053 -0.297509 -0.7280679 243 245 246 255
0.010216731 -0.017830933 0.01932358 0.95560014 0.29185745 -0.040591724 243 245 246 255
0.008825887 -0.015600115 0.03570801 0.87316835 -0.20626596 0.44162348 243 245 246 255
0.008904806 -0.009844276 0.03573459 0.6972448 0.19949561 -0.68851376 243 245 246 255
0.008846093 -0.014236805 0.03572821 0.9819825 -0.134043 -0.13320236 243 245 246 255
-0.009180683 -0.0139791705 0.04968112 -0.91059333 -0.39579615 0.11901766 243 245 246 255
-0.009192528 -0.00958107 0.03573578 -0.9818273 0.1338385 -0.13454504 243 245 246 255
-0.00928372 -0.015332494 0.03570801 -0.8759968 -0.17460845 0.44960156 243 245 246 255
-0.009263756 -0.013973411 0.03572702 -0.991346 -0.10508531 -0.07867846 243 245 246 255
-0.010739809 -0.017521178 0.01932418 -0.94683444 0.31930554 -0.039350487 243 245 246 255
0.0082502235 -0.009835677 0.0514611 0.78026164 0.4254247 0.45848185 243 245 246 255
0.008735935 -0.014240599 0.04996031 0.90442777 -0.37633055 0.20096183 243 245 246 255
-0.008404799 -0.013992245 0.05185294 -0.7287375 -0.4464144 0.5192841 243 245 246 255
-0.005675182 -0.0096342405 0.05385756 -0.2659228 0.35137123 0.89767665 243 245 246 255
0.0018144073 -0.009445612 0.04215568 -0.16297749 0.9514235 0.26121202 243 245 246 255
-0.003306788 -0.009377206 0.04377222 0.3137808 0.9421881 0.1175721 243 245 246 255
-0.00018721072 -0.012803852 0.04499375 0.016273612 0.9998651 0.0022390645 243 245 246 255
-0.00028384986 -0.009429986 0.04151052 0.023919847 0.9525016 0.30359313 243 245 246 255
-0.002082364 -0.009392616 0.04219353 0.20639361 0.94398135 0.2574897 243 245 246 255
0.009563514 -0.017645359 0.01110798 -0.75755066 -0.62284446 0.19540171 243 245 246 255
0.008709935 -0.01766607 0.00949794 -0.6267689 -0.6131346 0.48086038 243 245 246 255
0.0080796555 -0.02053479 0.008978068 -0.46169537 0.65643984 0.5965938 243 245 246 255
0.006684642 -0.020514173 0.01564162 -0.19397089 0.66592115 -0.72036403 243 245 246 255
0.007318435 -0.017823096 0.01545852 -0.33642948 0.33585003 -0.8797841 243 245 246 255
0.007639911 -0.017827606 0.0087423315 -0.47691664 0.2997698 0.8262497 243 245 246 255
0.008634275 -0.020543035 0.01448625 -0.5855903 0.6542087 -0.47863868 243 245 246 255
0.0059032445 -0.01780843 0.008206784 -0.04153792 0.2517474 0.96690124 243 245 246 255
0.0056973384 -0.020499583 0.008207798 0.0049588815 0.65147054 0.75865775 243 245 246 255
0.008747365 -0.017843852 0.01427406 -0.7479817 0.2982095 -0.5929541 243 245 246 255
0.0094495965 -0.017859168 0.01274335 -0.9546011 0.25143436 -0.15974176 243 245 246 255
0.009525923 -0.020556211 0.01161444 -0.74285126 0.66547406 0.07291388 243 245 246 255
0.00790561 -0.01753234 0.01548886 -0.54142714 -0.31442076 -0.7797412 243 245 246 255
0.0018981447 -0.017744245 0.01179015 0.98504156 0.14105667 0.09897594 243 245 246 255
0.0016595202 -0.017441826 0.01287972 0.93628 -0.26623523 -0.22912568 243 245 246 255
0.009546819 -0.017556831 0.01357632 -0.8841817 -0.30937213 -0.35001674 243 245 246 255
0.0024991531 -0.017751755 0.01393586 0.8397039 0.25491542 -0.47949493 243 245 246 255
0.0031953936 -0.017462492 0.01519817 0.58502424 -0.34243593 -0.7351764 243 245 246 255
0.0034942 -0.017766692 0.01503348 0.51696944 0.39120534 -0.7613809 243 245 246 255
0.005156481 -0.017797276 0.01575213 0.17720099 0.38860124 -0.9042063 243 245 246 255
0.0054011727 -0.017495628 0.01611226 0.025483884 -0.3113365 -0.949958 243 245 246 255
0.0022759642 -0.017449565 0.009761213 0.8159601 -0.30749038 0.4895495 243 245 246 255
0.007183519 -0.017521607 0.008155763 -0.35928932 -0.30180812 0.88307595 243 245 246 255
0.004541822 -0.017483288 0.008044362 0.2632648 -0.28311136 0.92224705 243 245 246 255
0.0039786873 -0.017768849 0.008646845 0.4818641 0.28495187 0.8286191 243 245 246 255
0.0027271188 -0.017754886 0.009725868 0.7251941 0.4070453 0.55534464 243 245 246 255
0.0027604026 -0.020456182 0.01448625 0.60867757 0.63330925 -0.47794458 243 245 246 255
0.003315023 -0.020464377 0.008978068 0.49197024 0.6382175 0.5921518 243 245 246 255
0.004942707 -0.020488432 0.01571643 0.17862795 0.65540266 -0.73385245 243 245 246 255
0.0018686942 -0.020443054 0.01161444 0.7759135 0.62709004 0.06867601 243 245 246 255
-0.0027308539 -0.017499208 0.01027405 -0.7307805 -0.58399135 0.35343197 243 245 246 255
-0.003918998 -0.020357473 0.008978068 -0.45841703 0.65368426 0.6021219 243 245 246 255
-0.0053140116 -0.020336859 0.01564162 -0.19397523 0.66592765 -0.72035694 243 245 246 255
-0.0046801586 -0.017645782 0.01545852 -0.41628322 0.05901273 -0.90731794 243 245 246 255
-0.0043587415 -0.017650291 0.0087423315 -0.49093866 0.41736087 0.7647151 243 245 246 255
-0.0033643774 -0.02036567 0.01448625 -0.58374125 0.6548809 -0.47997627 243 245 246 255
-0.006095408 -0.017631115 0.008206784 -0.0624744 0.3011802 0.95151854 243 245 246 255
-0.006301314 -0.020322269 0.008207798 0.0049587986 0.65147614 0.7586529 243 245 246 255
-0.003251288 -0.017666537 0.01427406 -0.72794896 0.45421842 -0.51359123 243 245 246 255
-0.0024179718 -0.01756893 0.01248186 -0.8457403 -0.52287537 -0.106418036 243 245 246 255
-0.0024727308 -0.020378897 0.01161444 -0.7407863 0.6682463 0.06842941 243 245 246 255
-0.0030357891 -0.017371777 0.01464384 -0.75386524 -0.27146393 -0.5983264 243 245 246 255
-0.010100507 -0.01756693 0.01179015 0.97320324 0.22980317 0.008132165 243 245 246 255
-0.010223371 -0.017264731 0.0108637195 0.9032711 -0.2945559 0.3119908 243 245 246 255
-0.010100654 -0.017266246 0.01344197 0.8943673 -0.3010403 -0.3308808 243 245 246 255
-0.009499441 -0.017574443 0.01393586 0.82661396 0.27307677 -0.49207553 243 245 246 255
-0.008622123 -0.017468184 0.01505017 0.50024647 -0.50770473 -0.70141953 243 245 246 255
-0.006842112 -0.017619962 0.01575213 0.2179991 0.27650583 -0.9359599 243 245 246 255
-0.0061906213 -0.017325455 0.01617604 -0.0415936 -0.2619797 -0.96417665 243 245 246 255
-0.006855293 -0.017313844 0.00796616 0.16556503 -0.3150669 0.9345165 243 245 246 255
-0.008752486 -0.017286228 0.008740007 0.5929653 -0.31302437 0.74189484 243 245 246 255
-0.004424189 -0.017351381 0.0082772365 -0.44494978 -0.2819103 0.85002726 243 245 246 255
-0.008019965 -0.017591534 0.008646845 0.40263978 0.3449433 0.8478769 243 245 246 255
-0.009271534 -0.017577572 0.009725868 0.78944993 0.2747845 0.5488738 243 245 246 255
-0.009238251 -0.020278867 0.01448625 0.60878074 0.63887274 -0.4703486 243 245 246 255
-0.00868363 -0.020287063 0.008978068 0.49196956 0.6382258 0.59214336 243 245 246 255
-0.007055945 -0.020311117 0.01571643 0.17308074 0.6583998 -0.73249763 243 245 246 255
-0.0101299 -0.02026574 0.01161444 0.77590543 0.62709963 0.06867884 243 245 246 255
-0.0031599384 -0.010851702 0.04464477 -0.76285625 -0.6425796 -0.071706094 137 137 137 255
-0.0005207319 -0.010893155 0.04796832 -0.08877632 -0.66296697 0.7433664 137 137 137 255
-0.002499351 -0.010849253 0.04695528 -0.5880715 -0.6433986 0.49011242 137 137 137 255
-0.002506349 -0.010850871 0.04317915 -0.62115705 -0.6587923 -0.42444864 137 137 137 255
-0.0011864288 -0.010878427 0.04214996 -0.25107458 -0.6537761 -0.71381956 137 137 137 255
-0.0021604132 -0.010866183 0.04408597 0.5097532 -0.8191599 0.2629234 137 137 137 255
-0.0009877841 -0.010878081 0.04701918 0.19833489 -0.80456275 -0.55976975 137 137 137 255
-0.0022116813 -0.010838123 0.0458244 0.53909177 -0.8134999 -0.21816927 137 137 137 255
-0.0011455535 -0.01087241 0.04306632 0.27427167 -0.8006006 0.5327418 137 137 137 255
0.0016796616 -0.009463413 0.04387903 -0.67457914 -0.6035044 0.4251183 137 137 137 255
-0.00012813642 -0.009429306 0.04711711 -0.013389291 -0.62375253 -0.7815072 137 137 137 255
0.000558265 -0.00944088 0.04301643 -0.27068844 -0.6437542 0.71575725 137 137 137 255
0.0013252954 -0.009449829 0.0465517 -0.5547234 -0.6209009 -0.5538628 137 137 137 255
0.0019468762 -0.009460865 0.04526871 -0.76594746 -0.6348637 -0.10135411 137 137 137 255
1.6982784e-05 -0.009389662 0.04323405 -0.082353055 -0.7749892 0.6265857 137 137 137 255
-0.0014363307 -0.00937057 0.04378831 0.49273622 -0.73516536 0.46555662 137 137 137 255
-0.0002951661 -0.009385049 0.04676586 0.0668522 -0.7876996 -0.61242163 137 137 137 255
-0.0018796487 -0.009361814 0.04558634 0.71218836 -0.6518041 -0.2606515 137 137 137 255
0.002746861 -0.009476799 0.04399472 0.5910929 -0.77790385 -0.213248 137 137 137 255
0.0016450863 -0.009459444 0.0424965 0.35631207 -0.7737999 -0.5237132 137 137 137 255
-0.00066032645 -0.0094255535 0.04803037 -0.11452884 -0.79095036 0.6010663 137 137 137 255
0.0016521274 -0.009458952 0.04755115 0.32557377 -0.80209786 0.50064045 137 137 137 255
-0.00015429273 -0.009436489 0.04194247 -0.016484484 -0.7674479 -0.6408994 137 137 137 255
0.0028354598 -0.009479719 0.04570305 0.59671724 -0.7827398 0.17676827 137 137 137 255
0.008792076 -0.009445362 0.03609037 0.57950026 -0.5658465 -0.5865128 137 137 137 255
-0.009067983 -0.009180653 0.03609037 -0.59687173 -0.5485114 -0.58555907 137 137 137 255
0.0008321269 -0.0019255169 0.04356497 -0.41243368 -0.60489106 0.68117934 137 137 137 255
0.0016014781 -0.009413257 0.04441362 -0.6115825 -0.76493514 0.20209225 137 137 137 255
0.0014971533 -0.0019348675 0.04591751 -0.6892742 -0.5942431 -0.41445902 137 137 137 255
0.0011580948 -0.00940891 0.0462116 -0.48639864 -0.77339023 -0.4065514 137 137 137 255
0.00080920954 -0.010898147 0.04216766 0.22534879 -0.66852325 -0.7087275 137 137 137 255
-0.004842334 8.8622444e-05 0.05371719 -0.14309743 0.6720489 0.726549 137 137 137 255
-0.008755599 0.00015916965 0.04727178 -0.64182323 0.7363582 -0.21410169 137 137 137 255
-0.0087575205 0.00015817783 0.04272794 -0.62844425 0.7448006 0.2243434 137 137 137 255
0.002268545 2.9558178e-06 0.05374616 -0.19540897 0.72607166 0.65926886 137 137 137 255
0.008708573 -0.00011838452 0.04993945 0.7395313 0.653711 0.16048491 137 137 137 255
0.008757181 -0.00010043332 0.0472719 0.65942043 0.71965784 -0.21738766 137 137 137 255
0.002274034 3.236044e-06 0.03624957 -0.2119702 0.73925394 -0.63919663 137 137 137 255
0.0022448536 4.15285e-05 0.0427556 -0.2154246 0.94918203 0.2294467 137 137 137 255
0.008758276 -9.897694e-05 0.04272389 0.65055686 0.7257721 0.22367534 137 137 137 255
-0.0022615842 0.00011719484 0.04726266 0.24228391 0.9428024 -0.2289588 137 137 137 255
-0.0022681833 6.9999296e-05 0.05374616 0.23186654 0.73176086 0.64090884 137 137 137 255
-2.3399885e-05 -0.0015587234 0.05380403 0.015464142 0.5079925 0.8612226 137 137 137 255
-2.2361488e-05 -0.0014884581 0.04499995 0.014579935 0.99989367 0.00025153853 137 137 137 255
-2.3433731e-05 -0.0015609881 0.03619641 0.0076482696 0.51164156 -0.85916495 137 137 137 255
-0.002269465 6.792472e-05 0.0362488 0.23442642 0.7322922 -0.63936883 137 137 137 255
-0.0022468523 0.000109633926 0.04275208 0.24296495 0.942519 0.22940345 137 137 137 255
0.0022632845 5.0326922e-05 0.04726266 -0.21453986 0.9496105 -0.22850087 137 137 137 255
0.00569116 -9.513853e-05 0.05360394 0.27043113 0.63848764 0.7205558 137 137 137 255
-0.0070060994 -0.009249632 0.05310285 -0.46717328 -0.63053733 0.61981595 137 137 137 255
0.007721684 -0.009470437 0.05219143 0.5769291 -0.64649135 0.4992013 137 137 137 255
-0.0035835912 -0.009334784 0.04705679 -0.65288 -0.6470175 0.3938478 137 137 137 255
-0.008923135 -0.00921731 0.0505712 -0.7450225 -0.61828506 0.25033003 137 137 137 255
-0.0040618544 -0.009330936 0.04573357 -0.3177079 -0.85603034 0.40776682 137 137 137 255
0.0005916181 -0.009401672 0.04108011 0.4166565 -0.8590474 -0.2973801 137 137 137 255
-0.0031774677 -0.009387701 0.04465281 -0.6317029 -0.77207756 -0.06962575 137 137 137 255
-0.0008726699 -0.009378064 0.04107677 -0.4223744 -0.8534585 -0.30530077 137 137 137 255
-0.0021955508 -0.009355296 0.04155498 -0.4017344 -0.6529356 -0.64209396 137 137 137 255
-0.004867707 -0.009280459 0.05389988 -0.14200525 -0.65292656 0.74399024 137 137 137 255
0.0005942147 -0.00940016 0.04892301 0.39501202 -0.86688185 0.30410776 137 137 137 255
0.0019174351 -0.009416077 0.04844492 0.3837158 -0.66337854 0.6424105 137 137 137 255
-0.0070740194 0.00012342309 0.05276924 -0.4769986 0.6604653 0.5798776 137 137 137 255
-0.008673868 0.00013518169 0.050318528 -0.71474785 0.66314876 0.22219197 137 137 137 255
-0.0076307254 -0.009283261 0.0442506 0.25796118 -0.9189309 -0.29836553 137 137 137 255
-0.0073515745 -0.0013331737 0.04408031 0.5613461 -0.5964135 -0.5737434 137 137 137 255
-0.004136196 -0.0013726422 0.04404103 -0.40085906 -0.6143958 -0.6795807 137 137 137 255
-0.0009348019 -0.0014268078 0.0409246 -0.67432845 -0.5990724 -0.43173313 137 137 137 255
-0.0026961607 -0.0013882003 0.04171341 -0.41943175 -0.7770689 -0.46929824 137 137 137 255
0.00089468766 -0.001455572 0.03767275 0.5625702 -0.5958813 0.57309705 137 137 137 255
0.004051448 -0.0015021631 0.04408985 0.40884337 -0.61674994 -0.6726565 137 137 137 255
0.003805241 -0.009457686 0.04425376 0.27725235 -0.84955424 -0.44876352 137 137 137 255
0.0025681716 -0.009422654 0.04193902 0.51135516 -0.64355063 -0.56952477 137 137 137 255
0.00302389 -0.0014645645 0.04195654 0.4156518 -0.8038712 -0.42546996 137 137 137 255
0.0073528574 -0.0095035555 0.03750175 -0.2881462 -0.9174898 0.2741976 137 137 137 255
0.0008880863 -0.0014553553 0.04092669 0.6625787 -0.6199311 -0.4203272 137 137 137 255
0.0048328266 -0.009465182 0.0524379 -0.2048508 -0.79745865 -0.5675348 137 137 137 255
0.00711859 -0.0015365209 0.05044227 -0.7052468 -0.6277676 -0.32944635 137 137 137 255
0.007118965 -0.009494019 0.05068916 -0.505528 -0.8228475 -0.25954494 137 137 137 255
0.0073521887 -0.009504498 0.04574936 -0.28809378 -0.9151177 0.28206664 137 137 137 255
0.0040931758 -0.0014940768 0.045959048 0.38252667 -0.6256576 0.67987204 137 137 137 255
0.0008917239 -0.0014534419 0.04907548 0.655773 -0.619718 0.43117455 137 137 137 255
0.0026539231 -0.001465892 0.04828691 0.39729 -0.78902996 0.4686069 137 137 137 255
0.00089492137 -0.0014564105 0.05232822 0.55719924 -0.5955054 -0.57870746 137 137 137 255
0.005068695 -0.0015073598 0.05222845 -0.28270087 -0.6445139 -0.7104098 137 137 137 255
-0.007503285 -0.009283835 0.05032676 0.5236174 -0.8216709 -0.22512606 137 137 137 255
-0.004945533 -0.0013643784 0.05226349 0.20046212 -0.6604615 -0.723606 137 137 137 255
-0.005482554 -0.009305828 0.0523557 0.2161748 -0.81497586 -0.53766435 137 137 137 255
-0.00093679246 -0.0014298777 0.05232697 -0.57822126 -0.57700723 -0.57682127 137 137 137 255
-0.0008885509 -0.009382957 0.05249238 -0.30057436 -0.9120479 -0.2789692 137 137 137 255
-0.0009804629 -0.0014191583 0.04911512 -0.6884199 -0.6102072 0.3920782 137 137 137 255
-0.004096718 -0.0013797234 0.04591345 -0.4397752 -0.60349315 0.6651269 137 137 137 255
-0.0033080345 -0.001377787 0.047675658 -0.48043776 -0.7758932 0.40886343 137 137 137 255
-0.0073303864 -0.0013273472 0.0495814 0.71788216 -0.68155557 -0.1418709 137 137 137 255
-0.0066283983 -0.0013148306 0.05116909 0.557374 -0.67386323 -0.48501816 137 137 137 255
0.0018060671 -0.010917578 0.04407691 -0.56275135 -0.7819979 0.26793712 137 137 137 255
0.002293961 -0.010931289 0.04326856 0.60183513 -0.6782014 -0.42170772 137 137 137 255
0.0005624151 -0.010904271 0.04287755 -0.19525462 -0.8228521 0.53365743 137 137 137 255
-0.0022938198 -0.009385558 0.04456418 0.75852334 -0.6303992 0.16504279 137 137 137 255
-0.000860916 -0.009421874 0.04298967 0.28757176 -0.62136346 0.7288415 137 137 137 255
-0.0015876223 -0.009406783 0.04656761 0.53098774 -0.6380825 -0.5575865 137 137 137 255
-0.0008893908 -0.0019001955 0.04643499 0.39438045 -0.61678207 -0.68120784 137 137 137 255
-0.0015543884 -0.0018897122 0.0440824 0.6714061 -0.61436605 0.4144494 137 137 137 255
0.007817894 -7.57964e-05 0.05191779 0.5976738 0.6585492 0.45727354 137 137 137 255
0.008770591 -0.00015715626 0.03626441 0.58575344 0.5723001 -0.57390386 137 137 137 255
0.00875406 -0.00947246 0.04989963 0.7367102 -0.656923 0.16034448 137 137 137 255
-0.008761802 0.00011863807 0.03626585 -0.5669503 0.5914998 -0.5733197 137 137 137 255
0.005200983 -0.009433067 0.05381947 0.20938893 -0.6417675 0.73776066 137 137 137 255
0.0073098484 -0.0015509115 0.04407978 -0.5820797 -0.5785032 -0.571417 137 137 137 255
0.007356896 -0.009504568 0.04424685 -0.28415266 -0.91129434 -0.29799324 137 137 137 255
0.0073107365 -0.0015512826 0.03767186 -0.5811344 -0.5787146 0.5721646 137 137 137 255
0.00061686226 -0.009404548 0.03750163 0.28452295 -0.9205801 0.26754278 137 137 137 255
-0.0026854095 -0.009397952 0.04679846 -0.50932115 -0.78934586 0.34281936 137 137 137 255
-0.0022168164 -0.009402611 0.04267549 -0.4306537 -0.7825009 -0.44969943 137 137 137 255
-0.0073537277 -0.0013336779 0.03767275 0.56362885 -0.5959779 0.5719553 137 137 137 255
-0.00763637 -0.009282047 0.03750687 0.2606355 -0.9258466 0.27363715 137 137 137 255
-0.00093760656 -0.0014287937 0.037672568 -0.5800067 -0.5791641 0.5728536 137 137 137 255
-0.004061682 -0.009331356 0.04426658 -0.3174854 -0.8548842 -0.41033635 137 137 137 255
-0.0008928735 -0.009382892 0.03750258 -0.31109306 -0.91251713 0.26558173 137 137 137 255
-0.0035140417 -0.009339925 0.04281467 -0.6388731 -0.6489119 -0.41322467 137 137 137 255
0.0073100748 -0.0015516898 0.045919828 -0.593127 -0.5757763 0.56274503 137 137 137 255
0.0037834581 -0.009447291 0.04573339 0.29421967 -0.86197567 0.4128351 137 137 137 255
0.0006146531 -0.009404813 0.05249726 0.27839753 -0.918575 -0.28056183 137 137 137 255
0.003235744 -0.009439672 0.0471853 0.61882865 -0.6672943 0.41445076 137 137 137 255
-0.007352843 -0.0013343472 0.04592007 0.5692522 -0.59401226 0.56842005 137 137 137 255
-0.0008726699 -0.009378064 0.04892319 -0.42300245 -0.85281897 0.306217 137 137 137 255
-0.0076354905 -0.009283013 0.04575371 0.26271254 -0.9210277 0.2875591 137 137 137 255
-0.0023241646 -0.009357509 0.0483753 -0.42331624 -0.6520927 0.6289504 137 137 137 255
0.0019920606 -0.010917167 0.0454204 -0.59797347 -0.79078066 -0.13074276 137 137 137 255
0.0009092058 -0.010898184 0.04698097 -0.28743693 -0.8091894 -0.5124379 137 137 137 255
0.0028480743 -0.010937448 0.04527872 0.735059 -0.67284507 0.083473094 137 137 137 255
0.0017095656 -0.010933144 0.04741126 0.45240152 -0.6647242 0.5945374 137 137 137 255
0.008780027 -0.0016888193 0.04499995 0.866432 0.49927908 0.0039897365 137 137 137 255
-0.008831485 -0.0014342812 0.04499995 -0.8541897 0.5198947 0.0083300425 137 137 137 255
3 3 124 2
3 4 124 3
3 4 0 124
3 0 5 124
3 1 124 5
3 6 7 8
3 6 54 7
3 9 74 18
3 9 10 74
3 11 12 13
3 14 15 12
3 17 20 16
3 16 20 45
3 45 20 18
3 17 19 20
3 18 6 15
3 45 18 15
3 15 21 12
3 6 21 15
3 6 22 21
3 21 23 12
3 12 23 13
3 21 24 23
3 72 26 27
3 72 73 26
3 26 73 28
3 73 14 28
3 25 29 31
3 31 29 30
3 26 28 31
3 28 25 31
3 32 33 34
3 30 35 33
3 29 35 30
3 11 13 35
3 13 34 33
3 13 33 35
3 36 37 38
3 37 39 40
3 41 39 37
3 23 24 41
3 36 23 37
3 37 23 41
3 42 40 39
3 42 43 40
3 13 36 34
3 13 23 36
3 51 16 44
3 16 45 44
3 19 17 53
3 53 17 46
3 47 54 48
3 36 48 49
3 36 49 34
3 49 32 34
3 38 48 36
3 50 27 49
3 55 44 52
3 55 51 44
3 55 46 51
3 53 46 55
3 52 44 50
3 54 52 50
3 48 50 49
3 48 54 50
3 38 56 48
3 57 56 38
3 37 57 38
3 58 59 57
3 57 60 56
3 59 60 57
3 40 58 37
3 37 58 57
3 60 48 56
3 60 47 48
3 61 33 32
3 62 32 49
3 62 61 32
3 62 26 61
3 26 63 61
3 27 62 49
3 27 26 62
3 63 30 61
3 61 30 33
3 24 21 65
3 24 64 41
3 24 65 64
3 65 66 64
3 66 67 64
3 67 68 64
3 22 66 65
3 22 65 21
3 68 39 41
3 68 41 64
3 11 35 69
3 71 69 70
3 71 11 69
3 12 11 71
3 69 25 70
3 25 28 70
3 70 28 71
3 29 25 69
3 29 69 35
3 71 14 12
3 28 14 71
3 44 45 72
3 45 73 72
3 6 18 54
3 54 18 74
3 75 76 19
3 53 75 19
3 46 17 16
3 51 46 16
3 66 22 77
3 66 77 67
3 77 42 67
3 67 42 68
3 39 68 42
3 8 22 6
3 76 9 20
3 9 18 20
3 19 76 20
3 40 43 58
3 58 43 59
3 43 78 59
3 59 78 60
3 78 47 60
3 45 15 73
3 54 47 7
3 14 73 15
3 74 52 54
3 10 52 74
3 55 10 75
3 55 52 10
3 75 53 55
3 72 50 44
3 27 50 72
3 31 30 63
3 26 31 63
3 77 79 42
3 77 22 79
3 82 83 80
3 83 81 80
3 82 85 83
3 84 85 82
3 86 91 87
3 89 91 86
3 90 91 89
3 85 84 90
3 90 84 91
3 90 89 88
3 86 121 89
3 94 121 86
3 93 5 92
3 92 5 94
3 5 0 94
3 93 1 5
3 94 0 97
3 93 95 1
3 95 96 1
3 0 4 97
3 4 3 97
3 95 122 96
3 97 3 98
3 3 99 98
3 95 125 122
3 2 99 3
3 123 100 2
3 126 100 123
3 2 100 99
3 125 100 126
3 95 100 125
3 95 102 100
3 101 102 95
3 103 104 101
3 105 104 103
3 76 75 103
3 75 105 103
3 10 105 75
3 103 9 76
3 80 81 106
3 81 107 106
3 47 78 108
3 108 78 43
3 10 107 81
3 10 81 117
3 7 108 107
3 7 107 10
3 106 9 80
3 80 9 109
3 79 8 106
3 106 8 9
3 109 110 80
3 109 101 110
3 112 101 111
3 112 110 101
3 111 93 119
3 111 119 112
3 113 114 116
3 99 114 113
3 104 114 102
3 115 116 104
3 104 116 114
3 115 117 81
3 104 117 115
3 7 9 8
3 10 9 7
3 108 43 107
3 42 106 43
3 43 106 107
3 42 79 106
3 94 86 87
3 92 94 87
3 118 92 87
3 118 87 119
3 93 118 119
3 99 113 120
3 98 99 120
3 98 120 88
3 121 98 88
3 121 88 89
3 100 102 114
3 104 105 117
3 99 100 114
3 98 121 97
3 121 94 97
3 118 93 92
3 105 10 117
3 95 93 111
3 7 47 108
3 101 95 111
3 103 101 109
3 81 83 115
3 109 9 103
3 115 85 116
3 83 85 115
3 8 79 22
3 85 90 113
3 85 113 116
3 120 113 90
3 120 90 88
3 119 87 91
3 91 84 112
3 91 112 119
3 82 80 110
3 84 110 112
3 84 82 110
3 2 124 123
3 126 123 124
3 96 124 1
3 96 122 124
3 122 125 124
3 125 126 124
3 102 101 104
3 127 128 138
3 138 128 129
3 155 146 130
3 146 131 130
3 128 132 129
3 130 131 133
3 129 134 135
3 132 134 129
3 131 136 133
3 136 137 133
3 133 137 138
3 137 127 138
3 131 139 136
3 139 142 136
3 140 141 143
3 136 142 137
3 143 144 145
3 141 144 143
3 142 127 137
3 145 144 146
3 144 147 146
3 146 147 131
3 147 139 131
3 149 144 150
3 150 144 148
3 147 144 149
3 148 144 141
3 142 139 127
3 139 147 127
3 127 147 128
3 128 147 149
3 151 148 152
3 150 148 151
3 152 148 140
3 148 141 140
3 128 149 132
3 132 149 134
3 149 150 134
3 134 150 151
3 140 143 153
3 143 145 153
3 135 151 154
3 134 151 135
3 153 145 155
3 145 146 155
3 151 152 154
3 154 152 156
3 152 140 156
3 156 140 153
3 153 155 130
3 153 130 133
3 153 133 138
3 154 153 138
3 154 138 129
3 154 156 153
3 154 129 135
3 167 157 158
3 183 174 159
3 174 160 159
3 157 161 158
3 159 160 162
3 158 163 164
3 161 163 158
3 160 165 162
3 165 166 162
3 162 166 167
3 166 157 167
3 160 168 165
3 170 171 169
3 169 171 172
3 165 168 166
3 171 173 172
3 173 175 174
3 174 175 160
3 175 168 160
3 177 171 170
3 175 171 177
3 175 173 171
3 157 168 178
3 178 168 176
3 176 175 177
3 168 175 176
3 166 168 157
3 176 177 179
3 179 177 180
3 177 170 180
3 180 170 169
3 157 178 161
3 161 178 163
3 178 176 163
3 163 176 179
3 169 172 181
3 172 173 181
3 164 179 182
3 163 179 164
3 181 173 183
3 173 174 183
3 179 180 182
3 182 180 184
3 180 169 184
3 184 169 181
3 158 162 167
3 182 183 159
3 182 181 183
3 182 184 181
3 182 159 164
3 164 159 162
3 164 162 158
3 211 212 213
3 212 214 213
3 214 201 213
3 213 201 285
3 199 212 211
3 198 312 197
3 312 313 197
3 283 281 196
3 197 313 195
3 196 281 194
3 281 279 194
3 194 279 198
3 279 312 198
3 203 208 314
3 203 314 280
3 206 186 315
3 206 205 186
3 204 203 280
3 204 280 215
3 207 204 215
3 207 215 189
3 208 206 315
3 208 315 314
3 225 216 226
3 225 246 216
3 247 246 225
3 217 247 225
3 290 218 231
3 290 231 230
3 232 219 233
3 232 233 287
3 232 287 220
3 232 220 221
3 222 223 224
3 222 224 288
3 317 247 217
3 317 237 247
3 210 237 317
3 218 210 317
3 290 210 218
3 316 221 220
3 289 316 220
3 209 224 316
3 209 288 224
3 209 316 289
3 225 226 227
3 228 225 227
3 229 230 231
3 229 231 228
3 232 228 227
3 232 227 219
3 229 228 223
3 222 229 223
3 209 222 288
3 229 222 209
3 210 230 229
3 210 290 230
3 210 229 209
3 227 243 291
3 227 291 233
3 227 233 219
3 216 227 226
3 216 243 227
3 203 256 255
3 203 204 256
3 237 248 310
3 311 296 205
3 291 262 235
3 299 210 302
3 291 260 262
3 248 210 299
3 237 210 248
3 210 209 302
3 302 209 295
3 258 209 293
3 293 209 289
3 235 262 289
3 311 236 296
3 234 269 271
3 262 263 289
3 291 306 260
3 234 237 269
3 207 256 204
3 236 238 296
3 207 239 256
3 296 238 240
3 291 273 306
3 263 293 289
3 238 301 240
3 207 241 239
3 297 242 207
3 207 242 241
3 301 303 240
3 291 243 273
3 273 244 306
3 263 305 293
3 240 303 297
3 245 206 307
3 297 303 242
3 258 295 209
3 238 310 301
3 206 208 307
3 237 310 269
3 244 206 245
3 307 208 305
3 243 271 273
3 244 205 206
3 241 302 239
3 273 309 244
3 239 302 295
3 305 255 293
3 305 208 255
3 309 205 244
3 310 248 301
3 208 203 255
3 234 271 243
3 311 205 309
3 237 234 246
3 237 246 247
3 234 216 246
3 234 243 216
3 235 287 233
3 291 235 233
3 289 220 287
3 235 289 287
3 248 298 249
3 299 298 248
3 301 249 250
3 248 249 301
3 251 241 242
3 252 251 242
3 252 242 303
3 250 252 303
3 250 303 301
3 300 241 251
3 300 302 241
3 298 299 300
3 300 299 302
3 252 300 251
3 298 300 252
3 249 252 250
3 249 298 252
3 294 295 258
3 253 295 294
3 239 253 259
3 295 253 239
3 257 255 256
3 257 254 255
3 259 256 239
3 259 257 256
3 255 292 293
3 255 254 292
3 294 293 292
3 294 258 293
3 257 253 294
3 257 294 292
3 259 253 257
3 254 257 292
3 261 262 268
3 262 260 268
3 304 262 261
3 304 263 262
3 304 305 263
3 264 305 304
3 265 244 245
3 266 265 245
3 266 245 307
3 264 266 307
3 264 307 305
3 244 267 306
3 244 265 267
3 260 267 268
3 306 267 260
3 264 304 261
3 266 264 261
3 268 266 261
3 268 265 266
3 267 265 268
3 278 269 277
3 270 271 278
3 271 269 278
3 271 272 273
3 271 270 272
3 272 309 273
3 274 309 272
3 275 238 236
3 276 275 236
3 276 236 311
3 274 276 311
3 274 311 309
3 308 238 275
3 308 310 238
3 269 308 277
3 310 308 269
3 270 276 274
3 270 274 272
3 277 275 276
3 277 308 275
3 278 277 276
3 278 276 270
3 281 280 279
3 279 280 314
3 281 215 280
3 312 279 314
3 281 189 215
3 193 189 281
3 312 314 315
3 190 189 193
3 188 189 190
3 313 312 315
3 185 188 190
3 186 191 313
3 186 313 315
3 185 190 192
3 187 185 192
3 186 192 191
3 187 192 186
3 296 240 185
3 296 185 187
3 297 207 189
3 205 296 187
3 297 189 188
3 205 187 186
3 297 188 185
3 240 297 185
3 282 190 283
3 313 191 195
3 190 193 283
3 195 191 284
3 193 281 283
3 191 192 284
3 284 192 282
3 192 190 282
3 285 202 286
3 202 200 286
3 200 199 286
3 286 199 211
3 201 202 285
3 212 194 198
3 200 282 283
3 199 283 196
3 195 214 197
3 284 202 201
3 214 212 197
3 197 212 198
3 195 201 214
3 212 196 194
3 212 199 196
3 284 282 202
3 195 284 201
3 202 282 200
3 200 283 199
3 285 286 211
3 285 211 213
3 223 228 316
3 223 316 224
3 232 221 316
3 228 232 316
3 317 217 225
3 317 225 228
3 317 228 231
3 218 317 231
